<svg width="121" height="46" viewBox="0 0 121 46" fill="none" xmlns="http://www.w3.org/2000/svg">
<path d="M11.2671 31.4263C9.11518 31.4263 7.24748 30.9695 5.664 30.056C4.10082 29.1425 2.8929 27.8736 2.04026 26.2495C1.18761 24.6255 0.76129 22.7679 0.76129 20.6769C0.76129 18.1799 1.18761 16.099 2.04026 14.4343C2.8929 12.7696 4.07037 11.5211 5.57265 10.6888C7.07493 9.83613 8.80052 9.4098 10.7494 9.4098C11.2163 9.4098 11.7543 9.45041 12.3634 9.53161C12.9927 9.61282 13.6829 9.79552 14.4341 10.0797C14.6371 9.97823 14.9111 9.88688 15.2563 9.80568C15.6014 9.70417 15.9465 9.61282 16.2916 9.53161C16.6367 9.45041 16.9108 9.4098 17.1138 9.4098C17.3777 10.0594 17.5706 10.8106 17.6924 11.6632C17.8142 12.4956 17.8954 13.3279 17.936 14.1603C17.9766 14.9723 17.9969 15.6828 17.9969 16.2919H15.0431C14.8401 14.9723 14.3326 13.9674 13.5205 13.2772C12.7085 12.5666 11.7543 12.2114 10.6581 12.2114C9.84602 12.2114 9.11518 12.4347 8.46555 12.8813C7.81591 13.3279 7.29824 14.1095 6.91252 15.2261C6.5471 16.3223 6.36439 17.8754 6.36439 19.8852C6.36439 22.0371 6.53695 23.7424 6.88207 25.001C7.24748 26.2394 7.76516 27.1326 8.4351 27.6808C9.12533 28.2086 9.95768 28.4725 10.9321 28.4725C12.0284 28.4725 12.8303 28.2086 13.3378 27.6808V24.2093C13.3378 23.6815 13.1043 23.3059 12.6374 23.0826C12.1705 22.839 11.46 22.7172 10.5058 22.7172C10.5058 22.372 10.5769 21.9559 10.719 21.4686C10.8611 20.9814 11.0336 20.616 11.2366 20.3724H17.8142C18.4232 20.3724 18.88 20.5145 19.1845 20.7987C19.489 21.0626 19.6819 21.357 19.7631 21.6818C19.8646 22.0066 19.9154 22.2502 19.9154 22.4126C19.9154 22.6157 19.8646 22.7984 19.7631 22.9608C19.4383 22.9608 19.1236 22.9811 18.8191 23.0217C18.5349 23.042 18.2811 23.1029 18.0578 23.2044V26.7063C18.0578 27.1529 18.0883 27.4676 18.1492 27.6503C18.2304 27.833 18.3116 27.9751 18.3928 28.0766C18.4537 28.1375 18.5044 28.2086 18.545 28.2898C18.5856 28.3507 18.6059 28.4624 18.6059 28.6248C18.6059 28.9902 18.2811 29.3962 17.6315 29.8428C16.9819 30.2692 16.0988 30.6447 14.9822 30.9695C13.8859 31.2741 12.6476 31.4263 11.2671 31.4263ZM28.4742 31.3959C27.0328 31.3959 25.7538 31.0914 24.6373 30.4823C23.5207 29.853 22.6478 28.9394 22.0184 27.7417C21.4094 26.5236 21.1049 25.0213 21.1049 23.2348C21.1049 21.3265 21.4297 19.7228 22.0793 18.4235C22.729 17.1242 23.6324 16.1396 24.7895 15.4697C25.9467 14.7997 27.2764 14.4648 28.7787 14.4648C30.2404 14.4648 31.5193 14.7794 32.6156 15.4088C33.7321 16.0381 34.5949 16.972 35.204 18.2103C35.8333 19.4284 36.148 20.9408 36.148 22.7476C36.148 24.6356 35.8232 26.2292 35.1735 27.5285C34.5239 28.8075 33.6205 29.7718 32.4633 30.4214C31.3062 31.0711 29.9764 31.3959 28.4742 31.3959ZM28.7178 29.2034C29.1441 29.2034 29.5095 29.0511 29.814 28.7466C30.1389 28.4421 30.3825 27.8838 30.5449 27.0717C30.7276 26.2394 30.8189 25.0416 30.8189 23.4785C30.8189 21.5701 30.7276 20.1288 30.5449 19.1543C30.3622 18.1596 30.0982 17.4896 29.7531 17.1445C29.408 16.7994 29.002 16.6268 28.5351 16.6268C28.1087 16.6268 27.7332 16.7791 27.4084 17.0836C27.0835 17.3881 26.8298 17.9566 26.6471 18.7889C26.4847 19.6212 26.4035 20.8292 26.4035 22.4126C26.4035 24.3006 26.4948 25.7319 26.6775 26.7063C26.8805 27.6808 27.1546 28.3406 27.4997 28.6857C27.8448 29.0308 28.2509 29.2034 28.7178 29.2034Z" fill="#474747"/>
<path d="M38.1611 31C37.9378 30.7564 37.7652 30.5026 37.6434 30.2387C37.5216 29.9748 37.4607 29.6804 37.4607 29.3556C38.0494 29.3556 38.4758 29.2338 38.7397 28.9902C39.0036 28.7263 39.1356 28.2898 39.1356 27.6808V11.511C39.1356 11.044 39.0036 10.6786 38.7397 10.4147C38.4758 10.1305 37.9175 9.98838 37.0648 9.98838V8.77032C37.5724 8.48611 38.1611 8.24249 38.831 8.03948C39.5213 7.81617 40.2014 7.64361 40.8713 7.5218C41.5412 7.3797 42.0995 7.30864 42.5461 7.30864C43.0131 7.30864 43.348 7.41015 43.551 7.61316C43.7744 7.81617 43.886 8.17144 43.886 8.67897V27.6808C43.886 28.3101 44.0078 28.7466 44.2514 28.9902C44.5153 29.2338 44.9518 29.3556 45.5608 29.3556C45.5608 29.6804 45.4898 29.9748 45.3477 30.2387C45.2259 30.5026 45.0533 30.7564 44.83 31H38.1611ZM54.2867 31.3959C52.8453 31.3959 51.5663 31.0914 50.4498 30.4823C49.3332 29.853 48.4603 28.9394 47.8309 27.7417C47.2219 26.5236 46.9174 25.0213 46.9174 23.2348C46.9174 21.3265 47.2422 19.7228 47.8918 18.4235C48.5415 17.1242 49.4449 16.1396 50.602 15.4697C51.7592 14.7997 53.0889 14.4648 54.5912 14.4648C56.0529 14.4648 57.3318 14.7794 58.4281 15.4088C59.5446 16.0381 60.4074 16.972 61.0165 18.2103C61.6458 19.4284 61.9605 20.9408 61.9605 22.7476C61.9605 24.6356 61.6357 26.2292 60.986 27.5285C60.3364 28.8075 59.433 29.7718 58.2758 30.4214C57.1187 31.0711 55.7889 31.3959 54.2867 31.3959ZM54.5303 29.2034C54.9566 29.2034 55.322 29.0511 55.6265 28.7466C55.9514 28.4421 56.195 27.8838 56.3574 27.0717C56.5401 26.2394 56.6314 25.0416 56.6314 23.4785C56.6314 21.5701 56.5401 20.1288 56.3574 19.1543C56.1747 18.1596 55.9108 17.4896 55.5656 17.1445C55.2205 16.7994 54.8145 16.6268 54.3476 16.6268C53.9212 16.6268 53.5457 16.7791 53.2209 17.0836C52.896 17.3881 52.6423 17.9566 52.4596 18.7889C52.2972 19.6212 52.216 20.8292 52.216 22.4126C52.216 24.3006 52.3073 25.7319 52.49 26.7063C52.693 27.6808 52.9671 28.3406 53.3122 28.6857C53.6573 29.0308 54.0634 29.2034 54.5303 29.2034ZM69.9923 31.3959C68.8961 31.3959 67.8607 31.1218 66.8863 30.5737C65.9321 30.0052 65.1607 29.1526 64.5719 28.0157C63.9832 26.8789 63.6888 25.4477 63.6888 23.7221C63.6888 21.6717 64.0644 19.9664 64.8155 18.6062C65.587 17.246 66.5817 16.231 67.7998 15.561C69.0382 14.8911 70.3577 14.5561 71.7585 14.5561C72.0224 14.5561 72.3168 14.5663 72.6416 14.5866C72.9664 14.6069 73.2912 14.6373 73.6161 14.6779L73.5247 12.8508V11.3283C73.5247 10.8613 73.3928 10.4959 73.1288 10.232C72.8649 9.96808 72.3168 9.83613 71.4845 9.83613V8.58761C71.992 8.30339 72.5909 8.04963 73.2811 7.82632C73.9713 7.60301 74.6514 7.43045 75.3214 7.30864C75.9913 7.16654 76.5293 7.09548 76.9353 7.09548C77.4022 7.09548 77.7372 7.20714 77.9402 7.43045C78.1635 7.63346 78.2752 7.98873 78.2752 8.49626V27.6199C78.2752 28.6146 78.7624 29.2034 79.7368 29.3861L79.7673 30.2387C79.4831 30.6244 79.0466 30.9086 78.4579 31.0914C77.8691 31.2944 77.2703 31.3959 76.6612 31.3959C76.1334 31.3959 75.5751 31.2741 74.9864 31.0305C74.3977 30.8071 73.9815 30.4519 73.7379 29.9646C73.3115 30.5331 72.7837 30.9086 72.1544 31.0914C71.5454 31.2944 70.8247 31.3959 69.9923 31.3959ZM72.0935 28.8075C72.7228 28.8075 73.1999 28.6248 73.5247 28.2594V17.6013C73.0984 17.0126 72.53 16.7182 71.8194 16.7182C71.2713 16.7182 70.7739 16.9111 70.3273 17.2968C69.8807 17.6622 69.5254 18.2814 69.2615 19.1543C68.9976 20.007 68.8656 21.1743 68.8656 22.6563C68.8656 24.7473 69.1701 26.3003 69.7792 27.3154C70.4085 28.3101 71.1799 28.8075 72.0935 28.8075ZM87.6043 26.0059C86.9344 26.0059 86.2949 25.9349 85.6858 25.7928V25.8841C85.6858 26.3917 85.8787 26.7469 86.2644 26.9499C86.6705 27.1529 87.3708 27.2951 88.3656 27.3763C90.9438 27.559 92.8826 28.0259 94.1818 28.777C95.5014 29.5282 96.1612 30.6549 96.1612 32.1572C96.1612 32.9489 95.9379 33.6899 95.4913 34.3801C95.0446 35.0704 94.4255 35.6692 93.6337 36.1768C92.8623 36.6843 91.9792 37.0802 90.9844 37.3644C89.9897 37.6486 88.9543 37.7907 87.8784 37.7907C85.361 37.7907 83.5238 37.3339 82.3666 36.4204C81.2298 35.5271 80.6613 34.4004 80.6613 33.0403C80.6613 32.2891 80.9049 31.609 81.3922 31C81.8997 30.391 82.6204 29.924 83.5542 29.5992C83.1076 29.2744 82.8234 28.909 82.7016 28.503C82.6001 28.0969 82.5493 27.6503 82.5493 27.1631C82.5493 26.8383 82.6813 26.483 82.9452 26.0973C83.2091 25.7116 83.6151 25.4172 84.1633 25.2142C83.2091 24.7067 82.458 24.0063 81.9098 23.113C81.382 22.2198 81.1181 21.2555 81.1181 20.2201C81.1181 19.1848 81.3719 18.2509 81.8794 17.4186C82.3869 16.5659 83.1381 15.8858 84.1328 15.3783C85.1276 14.8708 86.3659 14.617 87.8479 14.617H87.8784C88.0611 14.617 88.3351 14.6272 88.7006 14.6475C89.0863 14.6678 89.4415 14.7084 89.7664 14.7693C91.1671 14.7693 92.2329 14.7591 92.9638 14.7388C93.7149 14.6982 94.2834 14.6576 94.6691 14.617C95.0548 14.5764 95.4304 14.5257 95.7958 14.4648C96.0191 14.4648 96.1815 14.617 96.283 14.9215C96.3845 15.2058 96.4353 15.4798 96.4353 15.7437C96.4353 16.1295 96.3439 16.4543 96.1612 16.7182C95.9785 16.9821 95.674 17.1141 95.2477 17.1141C95.0649 17.1141 94.73 17.0126 94.2428 16.8095C93.7555 16.6065 93.2886 16.4238 92.842 16.2614C93.5322 16.8095 94.0499 17.4389 94.395 18.1494C94.7604 18.86 94.9431 19.5299 94.9431 20.1592C94.9431 22.0675 94.2935 23.5191 92.9942 24.5138C91.695 25.5086 89.8983 26.0059 87.6043 26.0059ZM88.122 23.9961C88.7919 23.9961 89.2588 23.6409 89.5228 22.9303C89.807 22.2198 89.9491 21.1743 89.9491 19.7938C89.9491 18.6569 89.7867 17.8449 89.4618 17.3577C89.1573 16.8705 88.7107 16.6268 88.122 16.6268C87.452 16.6268 86.9851 16.9821 86.7212 17.6926C86.4573 18.3829 86.3253 19.337 86.3253 20.5551C86.3253 21.6717 86.4674 22.5243 86.7517 23.113C87.0359 23.7018 87.4926 23.9961 88.122 23.9961ZM85.2595 32.2485C85.2595 33.1012 85.5234 33.8218 86.0513 34.4106C86.5791 34.9993 87.5231 35.2937 88.8833 35.2937C89.8983 35.2937 90.6089 35.0501 91.0149 34.5628C91.4209 34.0756 91.6239 33.5376 91.6239 32.9489C91.6239 32.482 91.4108 32.1166 90.9844 31.8526C90.5784 31.5887 90.0303 31.3756 89.34 31.2132C88.6498 31.0508 87.8784 30.8985 87.0257 30.7564C86.5182 30.6752 86.0614 30.5838 85.6554 30.4823C85.5133 30.7462 85.4118 31.0305 85.3509 31.335C85.29 31.6598 85.2595 31.9643 85.2595 32.2485ZM104.605 31.2741C102.332 31.2741 100.515 30.5534 99.1545 29.112C97.8146 27.6706 97.1447 25.6608 97.1447 23.0826C97.1447 21.3164 97.4797 19.7938 98.1496 18.5148C98.8195 17.2156 99.7229 16.2208 100.86 15.5306C102.017 14.8403 103.326 14.4952 104.788 14.4952C106.615 14.4952 108.077 15.0332 109.173 16.1092C110.29 17.1648 110.848 18.6569 110.848 20.5855C110.848 21.357 110.716 22.0371 110.452 22.6258C110.208 23.1942 109.691 23.4785 108.899 23.4785H102.321C102.382 25.0822 102.748 26.2191 103.418 26.889C104.108 27.559 105.001 27.8939 106.097 27.8939C106.788 27.8939 107.427 27.7924 108.016 27.5894C108.605 27.3661 109.153 27.0616 109.66 26.6759C109.843 26.8383 109.985 27.092 110.087 27.4372C110.208 27.762 110.269 28.036 110.269 28.2594C110.269 28.5842 110.036 28.9902 109.569 29.4774C109.122 29.9443 108.473 30.3605 107.62 30.7259C106.788 31.0914 105.783 31.2741 104.605 31.2741ZM102.321 21.1641H105.397C105.742 21.1641 105.955 21.0322 106.037 20.7683C106.138 20.5043 106.189 20.1795 106.189 19.7938C106.189 18.4945 106.026 17.6419 105.702 17.2359C105.397 16.8095 105.032 16.5964 104.605 16.5964C104.26 16.5964 103.915 16.7283 103.57 16.9923C103.225 17.2562 102.941 17.7231 102.717 18.393C102.494 19.0427 102.362 19.9664 102.321 21.1641Z" fill="#3F6FB9"/>
<path d="M0.297379 41.4091V41.1935H2.9645V41.4091H1.7471V45H1.51477V41.4091H0.297379ZM6.16634 45V41.1935H6.39867V42.9871H8.6922V41.1935H8.92453V45H8.6922V43.2027H6.39867V45H6.16634ZM12.3805 45V41.1935H14.4994V41.4091H12.6129V42.9871H14.386V43.2027H12.6129V44.7844H14.544V45H12.3805ZM21.6451 41.1935H21.8979L23.3643 44.6654H23.3904L24.8568 41.1935H25.1096V45H24.8865V41.7456H24.8642L23.487 45H23.2677L21.8904 41.7456H21.8681V45H21.6451V41.1935ZM31.5923 43.0968C31.5923 43.4896 31.5242 43.8328 31.3879 44.1264C31.2516 44.4189 31.062 44.6462 30.8192 44.8086C30.5775 44.9709 30.2987 45.052 29.9828 45.052C29.6656 45.052 29.3855 44.9709 29.1427 44.8086C28.9011 44.645 28.7121 44.417 28.5758 44.1246C28.4395 43.8309 28.3714 43.4883 28.3714 43.0968C28.3714 42.704 28.4395 42.3614 28.5758 42.069C28.7133 41.7765 28.9029 41.5492 29.1445 41.3868C29.3862 41.2233 29.6656 41.1415 29.9828 41.1415C30.2987 41.1415 30.5775 41.2227 30.8192 41.385C31.062 41.5473 31.2516 41.7753 31.3879 42.069C31.5242 42.3614 31.5923 42.704 31.5923 43.0968ZM31.3656 43.0968C31.3656 42.7436 31.3061 42.4376 31.1872 42.1786C31.0695 41.9196 30.9065 41.7195 30.6983 41.5783C30.4902 41.4358 30.2517 41.3645 29.9828 41.3645C29.7139 41.3645 29.4754 41.4352 29.2672 41.5764C29.059 41.7164 28.8955 41.9166 28.7765 42.1768C28.6588 42.4357 28.6 42.7424 28.6 43.0968C28.6 43.4474 28.6582 43.7529 28.7747 44.0131C28.8924 44.272 29.0553 44.4728 29.2635 44.6153C29.4717 44.7578 29.7114 44.829 29.9828 44.829C30.2517 44.829 30.4902 44.7584 30.6983 44.6171C30.9065 44.4746 31.0695 44.2739 31.1872 44.0149C31.3061 43.756 31.3656 43.4499 31.3656 43.0968ZM35.9112 45H34.8555V41.1935H35.993C36.3499 41.1935 36.6553 41.2691 36.9093 41.4203C37.1633 41.5715 37.3578 41.7883 37.4929 42.0708C37.6292 42.3521 37.6967 42.6897 37.6955 43.0838C37.6943 43.4865 37.6236 43.8309 37.4836 44.1172C37.3436 44.4021 37.141 44.6208 36.8758 44.7732C36.6107 44.9244 36.2891 45 35.9112 45ZM35.0878 44.7844H35.9019C36.2414 44.7844 36.5277 44.7169 36.7606 44.5818C36.9936 44.4455 37.1695 44.2504 37.2885 43.9963C37.4086 43.7423 37.4681 43.4381 37.4669 43.0838C37.4669 42.7343 37.4093 42.4351 37.294 42.1861C37.1788 41.9358 37.0109 41.7437 36.7903 41.6099C36.571 41.4761 36.3021 41.4091 35.9837 41.4091H35.0878V44.7844ZM40.9573 45V41.1935H43.0761V41.4091H41.1896V42.9871H42.9627V43.2027H41.1896V44.7844H43.1207V45H40.9573ZM46.3946 45V41.1935H47.5674C47.8077 41.1935 48.0147 41.2406 48.1881 41.3348C48.3616 41.429 48.4948 41.5597 48.5877 41.727C48.6807 41.893 48.7271 42.0863 48.7271 42.3069C48.7271 42.5249 48.6807 42.717 48.5877 42.883C48.4948 43.0478 48.3616 43.1767 48.1881 43.2696C48.0159 43.3626 47.8096 43.409 47.5692 43.409H46.5191V43.1916H47.5636C47.7594 43.1916 47.9267 43.155 48.0655 43.0819C48.2042 43.0088 48.3108 42.9066 48.3852 42.7752C48.4595 42.6427 48.4967 42.4865 48.4967 42.3069C48.4967 42.126 48.4595 41.9686 48.3852 41.8348C48.3108 41.6997 48.2036 41.595 48.0636 41.5207C47.9248 41.4463 47.7576 41.4091 47.5618 41.4091H46.6269V45H46.3946ZM47.9577 43.2752L48.8944 45H48.6268L47.6956 43.2752H47.9577ZM54.9195 41.1935V45H54.6927L52.2654 41.6155H52.2431V45H52.0108V41.1935H52.2394L54.6667 44.5818H54.689V41.1935H54.9195ZM62.2005 45V41.1935H62.4328V42.9871H64.7263V41.1935H64.9586V45H64.7263V43.2027H62.4328V45H62.2005ZM71.4423 43.0968C71.4423 43.4896 71.3742 43.8328 71.2379 44.1264C71.1016 44.4189 70.912 44.6462 70.6692 44.8086C70.4275 44.9709 70.1487 45.052 69.8328 45.052C69.5156 45.052 69.2355 44.9709 68.9927 44.8086C68.7511 44.645 68.5621 44.417 68.4258 44.1246C68.2895 43.8309 68.2214 43.4883 68.2214 43.0968C68.2214 42.704 68.2895 42.3614 68.4258 42.069C68.5633 41.7765 68.7529 41.5492 68.9945 41.3868C69.2362 41.2233 69.5156 41.1415 69.8328 41.1415C70.1487 41.1415 70.4275 41.2227 70.6692 41.385C70.912 41.5473 71.1016 41.7753 71.2379 42.069C71.3742 42.3614 71.4423 42.704 71.4423 43.0968ZM71.2156 43.0968C71.2156 42.7436 71.1561 42.4376 71.0372 42.1786C70.9195 41.9196 70.7565 41.7195 70.5483 41.5783C70.3402 41.4358 70.1017 41.3645 69.8328 41.3645C69.5639 41.3645 69.3254 41.4352 69.1172 41.5764C68.909 41.7164 68.7455 41.9166 68.6265 42.1768C68.5088 42.4357 68.45 42.7424 68.45 43.0968C68.45 43.4474 68.5082 43.7529 68.6247 44.0131C68.7424 44.272 68.9053 44.4728 69.1135 44.6153C69.3217 44.7578 69.5614 44.829 69.8328 44.829C70.1017 44.829 70.3402 44.7584 70.5483 44.6171C70.7565 44.4746 70.9195 44.2739 71.0372 44.0149C71.1561 43.756 71.2156 43.4499 71.2156 43.0968ZM76.7574 42.1452C76.7376 41.9085 76.641 41.7171 76.4675 41.5708C76.2953 41.4246 76.0722 41.3515 75.7984 41.3515C75.6138 41.3515 75.4496 41.3856 75.3059 41.4538C75.1621 41.5219 75.0494 41.6148 74.9676 41.7325C74.8858 41.8503 74.8449 41.9853 74.8449 42.1377C74.8449 42.2356 74.8635 42.3242 74.9007 42.4035C74.9391 42.4816 74.993 42.5516 75.0624 42.6135C75.1318 42.6742 75.2142 42.7275 75.3096 42.7734C75.405 42.8192 75.5103 42.8595 75.6255 42.8942L76.0419 43.0169C76.1844 43.0602 76.3157 43.1104 76.4359 43.1674C76.5573 43.2244 76.6626 43.2925 76.7519 43.3718C76.8423 43.4499 76.9123 43.5416 76.9619 43.6469C77.0127 43.7522 77.0381 43.8737 77.0381 44.0112C77.0381 44.2119 76.986 44.3916 76.882 44.5502C76.7791 44.7088 76.6323 44.834 76.4415 44.9257C76.2519 45.0161 76.0282 45.0613 75.7705 45.0613C75.5252 45.0613 75.3114 45.0198 75.1293 44.9368C74.9484 44.8538 74.8053 44.7386 74.6999 44.5911C74.5946 44.4424 74.5352 44.2714 74.5215 44.0781H74.7594C74.7718 44.2355 74.822 44.3718 74.91 44.487C74.9992 44.601 75.1175 44.689 75.265 44.7509C75.4124 44.8129 75.5809 44.8439 75.7705 44.8439C75.975 44.8439 76.1552 44.8092 76.3114 44.7398C76.4675 44.6692 76.5895 44.5713 76.6775 44.4461C76.7655 44.321 76.8095 44.1754 76.8095 44.0094C76.8095 43.8755 76.7779 43.7609 76.7147 43.6655C76.6515 43.5701 76.5579 43.4877 76.434 43.4183C76.3114 43.3489 76.159 43.287 75.9768 43.2325L75.5326 43.0986C75.2352 43.0082 75.0079 42.8849 74.8505 42.7288C74.6944 42.5726 74.6163 42.3781 74.6163 42.1452C74.6163 41.9494 74.6684 41.7759 74.7724 41.6247C74.8765 41.4723 75.0178 41.3528 75.1962 41.266C75.3759 41.1793 75.5785 41.1359 75.804 41.1359C76.0307 41.1359 76.2308 41.1799 76.4043 41.2679C76.5778 41.3546 76.7153 41.4742 76.8169 41.6266C76.9185 41.7778 76.9749 41.9506 76.986 42.1452H76.7574ZM80.3115 45V41.1935H81.4843C81.7259 41.1935 81.9328 41.2431 82.1051 41.3422C82.2785 41.4414 82.4117 41.577 82.5047 41.7493C82.5976 41.9215 82.6441 42.1179 82.6441 42.3385C82.6441 42.5565 82.5976 42.7517 82.5047 42.9239C82.4117 43.0962 82.2785 43.2325 82.1051 43.3328C81.9328 43.4319 81.7265 43.4815 81.4861 43.4815H80.475V43.2659H81.4806C81.6763 43.2659 81.8436 43.2263 81.9824 43.147C82.1212 43.0664 82.2277 42.9568 82.3021 42.818C82.3764 42.678 82.4136 42.5181 82.4136 42.3385C82.4136 42.1576 82.3764 41.9971 82.3021 41.8571C82.2277 41.7171 82.1205 41.6074 81.9805 41.5281C81.8418 41.4488 81.6745 41.4091 81.4787 41.4091H80.5438V45H80.3115ZM86.1242 41.1935V45H85.8919V41.1935H86.1242ZM89.3284 41.4091V41.1935H91.9955V41.4091H90.7781V45H90.5458V41.4091H89.3284ZM94.6059 45H94.3605L95.734 41.1935H96.0017L97.3752 45H97.1299L95.8771 41.4928H95.8586L94.6059 45ZM94.9534 43.567H96.7823V43.7826H94.9534V43.567ZM100.44 45V41.1935H100.673V44.7844H102.531V45H100.44ZM105.972 41.1935V45H105.74V41.1935H105.972ZM109.176 41.4091V41.1935H111.843V41.4091H110.626V45H110.394V41.4091H109.176ZM114.659 41.1935H114.934L116.132 43.0299H116.158L117.357 41.1935H117.632L116.263 43.2733V45H116.028V43.2733L114.659 41.1935Z" fill="#1A1A1A" fill-opacity="0.8"/>
<path d="M111.566 11.9942V11.3636H114.879V11.9942H113.595V15.5161H112.849V11.9942H111.566ZM116.089 11.3636H117.009L118.242 14.3726H118.29L119.523 11.3636H120.444V15.5161H119.722V12.6633H119.683L118.536 15.5039H117.996L116.849 12.6572H116.81V15.5161H116.089V11.3636Z" fill="#1A1A1A" fill-opacity="0.8"/>
</svg>
