<svg width="28" height="28" viewBox="0 0 28 28" fill="none" xmlns="http://www.w3.org/2000/svg">
<g clip-path="url(#clip0_16_108)">
<path d="M19.5686 0.0140123C19.5091 -0.0524877 17.3654 0.0402623 15.4999 2.06501C13.6344 4.08801 13.9214 6.40851 13.9634 6.46801C14.0054 6.52751 16.6234 6.62026 18.2946 4.26651C19.9659 1.91276 19.6281 0.0822623 19.5686 0.0140123ZM25.3681 20.5468C25.2841 20.3788 21.2994 18.3873 21.6704 14.5583C22.0414 10.7293 24.6016 9.67751 24.6419 9.56376C24.6821 9.45001 23.5971 8.18126 22.4474 7.53901C21.603 7.08664 20.6688 6.82724 19.7121 6.77951C19.5231 6.77426 18.8669 6.61326 17.5176 6.98251C16.6286 7.22576 14.6249 8.01326 14.0736 8.04476C13.5206 8.07626 11.8756 7.13126 10.1064 6.88101C8.97411 6.66226 7.77361 7.11026 6.91436 7.45501C6.05686 7.79801 4.42586 8.77451 3.28486 11.3698C2.14386 13.9633 2.74061 18.0723 3.16761 19.3498C3.59461 20.6273 4.26136 22.7168 5.39536 24.2428C6.40336 25.9648 7.74037 27.16 8.29861 27.566C8.85686 27.972 10.4319 28.2415 11.5239 27.6833C12.4024 27.1443 13.9879 26.8345 14.6144 26.8573C15.2391 26.88 16.4711 27.1268 17.7329 27.8005C18.7321 28.1453 19.6771 28.0018 20.6239 27.6168C21.5706 27.23 22.9409 25.7635 24.5404 22.7903C25.147 21.4078 25.4229 20.6599 25.3681 20.5468Z" fill="black"/>
<path d="M19.5686 0.0140123C19.5091 -0.0524877 17.3654 0.0402623 15.4999 2.06501C13.6344 4.08801 13.9214 6.40851 13.9634 6.46801C14.0054 6.52751 16.6234 6.62026 18.2946 4.26651C19.9659 1.91276 19.6281 0.0822623 19.5686 0.0140123ZM25.3681 20.5468C25.2841 20.3788 21.2994 18.3873 21.6704 14.5583C22.0414 10.7293 24.6016 9.67751 24.6419 9.56376C24.6821 9.45001 23.5971 8.18126 22.4474 7.53901C21.603 7.08664 20.6688 6.82724 19.7121 6.77951C19.5231 6.77426 18.8669 6.61326 17.5176 6.98251C16.6286 7.22576 14.6249 8.01326 14.0736 8.04476C13.5206 8.07626 11.8756 7.13126 10.1064 6.88101C8.97411 6.66226 7.77361 7.11026 6.91436 7.45501C6.05686 7.79801 4.42586 8.77451 3.28486 11.3698C2.14386 13.9633 2.74061 18.0723 3.16761 19.3498C3.59461 20.6273 4.26136 22.7168 5.39536 24.2428C6.40336 25.9648 7.74037 27.16 8.29861 27.566C8.85686 27.972 10.4319 28.2415 11.5239 27.6833C12.4024 27.1443 13.9879 26.8345 14.6144 26.8573C15.2391 26.88 16.4711 27.1268 17.7329 27.8005C18.7321 28.1453 19.6771 28.0018 20.6239 27.6168C21.5706 27.23 22.9409 25.7635 24.5404 22.7903C25.147 21.4078 25.4229 20.6599 25.3681 20.5468Z" fill="black"/>
</g>
<defs>
<clipPath id="clip0_16_108">
<rect width="28" height="28" fill="white"/>
</clipPath>
</defs>
</svg>
