<svg width="28" height="28" viewBox="0 0 28 28" fill="none" xmlns="http://www.w3.org/2000/svg">
<path d="M25.5173 1.05664H2.48508C1.69617 1.05664 1.05664 1.69617 1.05664 2.48508V25.5173C1.05664 26.3062 1.69617 26.9457 2.48508 26.9457H25.5173C26.3062 26.9457 26.9457 26.3062 26.9457 25.5173V2.48508C26.9457 1.69617 26.3062 1.05664 25.5173 1.05664Z" fill="#3D5A98"/>
<path d="M18.9176 26.9435V16.9182H22.282L22.7851 13.0113H18.9176V10.5176C18.9176 9.38663 19.2326 8.61445 20.8536 8.61445H22.9229V5.11444C21.9209 5.0102 20.9138 4.96054 19.9064 4.9657C16.927 4.9657 14.8751 6.78132 14.8751 10.1304V13.0113H11.5107V16.9182H14.8751V26.9435H18.9176Z" fill="white"/>
</svg>
