<svg width="254" height="96" viewBox="0 0 254 96" fill="none" xmlns="http://www.w3.org/2000/svg">
<path d="M23.68 64.896C19.2 64.896 15.296 63.936 11.968 62.016C8.64 60.096 6.08 57.4293 4.288 54.016C2.496 50.6027 1.6 46.6987 1.6 42.304C1.6 37.184 2.47467 32.8533 4.224 29.312C6.016 25.7707 8.49067 23.104 11.648 21.312C14.8053 19.52 18.4533 18.624 22.592 18.624C25.28 18.624 27.8613 19.0933 30.336 20.032C30.976 19.7333 31.8933 19.4347 33.088 19.136C34.3253 18.8373 35.2853 18.6667 35.968 18.624C37.2053 21.7813 37.824 26.6027 37.824 33.088H31.616C31.1893 30.3573 30.1227 28.2453 28.416 26.752C26.752 25.2587 24.7467 24.512 22.4 24.512C19.584 24.512 17.3653 25.728 15.744 28.16C14.1653 30.5493 13.376 34.7093 13.376 40.64C13.376 47.2107 14.1653 51.8613 15.744 54.592C17.3227 57.3227 19.7333 58.688 22.976 58.688C24.1707 58.688 25.1733 58.56 25.984 58.304C26.7947 58.048 27.4773 57.6213 28.032 57.024V49.728C28.032 48.6187 27.5413 47.8293 26.56 47.36C25.6213 46.848 24.128 46.592 22.08 46.592C22.08 45.824 22.2293 44.928 22.528 43.904C22.8267 42.88 23.1893 42.1333 23.616 41.664H37.44C39.104 41.664 40.256 42.1547 40.896 43.136C41.536 44.1173 41.856 45.056 41.856 45.952C41.856 46.3787 41.7493 46.7627 41.536 47.104C40 47.104 38.8053 47.2747 37.952 47.616V54.976C37.952 56.3413 38.1867 57.3013 38.656 57.856C38.9547 58.1547 39.104 58.5387 39.104 59.008C39.104 59.776 38.4 60.6293 36.992 61.568C35.584 62.5067 33.6853 63.296 31.296 63.936C28.9493 64.576 26.4107 64.896 23.68 64.896ZM59.652 64.832C54.9587 64.832 51.204 63.36 48.388 60.416C45.572 57.4293 44.164 53.184 44.164 47.68C44.164 43.7547 44.8253 40.4053 46.148 37.632C47.5133 34.8587 49.412 32.768 51.844 31.36C54.276 29.952 57.092 29.248 60.292 29.248C63.364 29.248 66.052 29.9307 68.356 31.296C70.7027 32.6187 72.516 34.5813 73.796 37.184C75.1187 39.7867 75.78 42.944 75.78 46.656C75.78 50.5387 75.0973 53.8453 73.732 56.576C72.4093 59.3067 70.532 61.376 68.1 62.784C65.668 64.1493 62.852 64.832 59.652 64.832ZM60.164 60.224C61.6573 60.224 62.7667 59.3707 63.492 57.664C64.2173 55.9573 64.58 52.8 64.58 48.192C64.58 44.3093 64.388 41.3227 64.004 39.232C63.62 37.1413 63.0867 35.712 62.404 34.944C61.7213 34.176 60.8467 33.792 59.78 33.792C58.2867 33.792 57.156 34.6453 56.388 36.352C55.6627 38.0587 55.3 41.2587 55.3 45.952C55.3 49.792 55.492 52.7573 55.876 54.848C56.26 56.896 56.7933 58.304 57.476 59.072C58.2013 59.84 59.0973 60.224 60.164 60.224Z" fill="#474747"/>
<path d="M82.8135 23.04C82.8135 21.9733 82.4935 21.184 81.8535 20.672C81.2562 20.1173 80.1255 19.84 78.4615 19.84V17.28C79.9975 16.4267 81.9388 15.7013 84.2855 15.104C86.6322 14.5067 88.5308 14.208 89.9815 14.208C91.0055 14.208 91.7308 14.4213 92.1575 14.848C92.5842 15.2747 92.7975 16.0213 92.7975 17.088V57.024C92.7975 58.3467 93.0535 59.264 93.5655 59.776C94.1202 60.288 95.0375 60.544 96.3175 60.544C96.3175 61.7387 95.8055 62.8907 94.7815 64H80.7655C79.7842 62.9333 79.2935 61.7813 79.2935 60.544C80.5308 60.544 81.4268 60.288 81.9815 59.776C82.5362 59.2213 82.8135 58.304 82.8135 57.024V23.04ZM113.777 64.832C109.084 64.832 105.329 63.36 102.513 60.416C99.697 57.4293 98.289 53.184 98.289 47.68C98.289 43.7547 98.9503 40.4053 100.273 37.632C101.638 34.8587 103.537 32.768 105.969 31.36C108.401 29.952 111.217 29.248 114.417 29.248C117.489 29.248 120.177 29.9307 122.481 31.296C124.828 32.6187 126.641 34.5813 127.921 37.184C129.244 39.7867 129.905 42.944 129.905 46.656C129.905 50.5387 129.222 53.8453 127.857 56.576C126.534 59.3067 124.657 61.376 122.225 62.784C119.793 64.1493 116.977 64.832 113.777 64.832ZM114.289 60.224C115.782 60.224 116.892 59.3707 117.617 57.664C118.342 55.9573 118.705 52.8 118.705 48.192C118.705 44.3093 118.513 41.3227 118.129 39.232C117.745 37.1413 117.212 35.712 116.529 34.944C115.846 34.176 114.972 33.792 113.905 33.792C112.412 33.792 111.281 34.6453 110.513 36.352C109.788 38.0587 109.425 41.2587 109.425 45.952C109.425 49.792 109.617 52.7573 110.001 54.848C110.385 56.896 110.918 58.304 111.601 59.072C112.326 59.84 113.222 60.224 114.289 60.224ZM167.147 62.4C166.549 63.168 165.653 63.7653 164.458 64.192C163.264 64.6187 161.984 64.832 160.619 64.832C159.381 64.832 158.165 64.5547 156.971 64C155.776 63.488 154.944 62.7627 154.475 61.824C153.621 62.9333 152.555 63.7013 151.275 64.128C150.037 64.5973 148.48 64.832 146.603 64.832C144.213 64.832 142.016 64.2347 140.01 63.04C138.005 61.8027 136.384 59.9893 135.147 57.6C133.952 55.168 133.355 52.2027 133.355 48.704C133.355 44.5653 134.123 41.0453 135.659 38.144C137.237 35.2427 139.307 33.0667 141.867 31.616C144.427 30.1653 147.243 29.44 150.315 29.44C151.04 29.44 152.341 29.5253 154.219 29.696L154.027 25.856V22.656C154.027 21.5893 153.728 20.8 153.131 20.288C152.533 19.776 151.403 19.52 149.739 19.52V16.896C151.232 16.0853 153.173 15.36 155.563 14.72C157.952 14.08 159.829 13.76 161.195 13.76C162.176 13.76 162.88 13.9947 163.307 14.464C163.776 14.8907 164.011 15.6373 164.011 16.704V56.896C164.011 58.9867 165.035 60.224 167.083 60.608L167.147 62.4ZM151.019 59.392C152.341 59.392 153.344 59.008 154.027 58.24V35.84C153.131 34.6027 151.936 33.984 150.443 33.984C148.565 33.984 147.051 34.9653 145.899 36.928C144.789 38.8907 144.235 42.0693 144.235 46.464C144.235 50.688 144.853 53.9093 146.091 56.128C147.371 58.304 149.013 59.392 151.019 59.392ZM185.093 56.384C190.597 56.768 194.693 57.7707 197.381 59.392C200.111 60.9707 201.477 63.3173 201.477 66.432C201.477 68.608 200.666 70.592 199.045 72.384C197.423 74.2187 195.269 75.648 192.581 76.672C189.935 77.7387 187.098 78.272 184.069 78.272C178.991 78.272 175.194 77.3547 172.677 75.52C170.159 73.728 168.901 71.3173 168.901 68.288C168.901 66.7093 169.413 65.28 170.437 64C171.503 62.6773 173.018 61.696 174.981 61.056C174.127 60.4587 173.551 59.7547 173.253 58.944C172.997 58.1333 172.869 57.1307 172.869 55.936C172.869 55.168 173.167 54.4 173.765 53.632C174.362 52.8213 175.194 52.224 176.26 51.84C174.255 50.7733 172.677 49.3013 171.525 47.424C170.415 45.5467 169.861 43.52 169.861 41.344C169.861 39.1253 170.394 37.1413 171.461 35.392C172.57 33.6 174.17 32.192 176.26 31.168C178.394 30.1013 180.975 29.568 184.005 29.568H184.069C185.605 29.568 186.927 29.6747 188.037 29.888C192.047 29.888 194.799 29.8453 196.293 29.76C197.829 29.632 199.301 29.4613 200.708 29.248C201.135 29.248 201.455 29.5467 201.669 30.144C201.925 30.6987 202.053 31.296 202.053 31.936C202.053 33.856 201.221 34.816 199.557 34.816C199.173 34.816 197.999 34.432 196.037 33.664C195.695 33.4933 195.183 33.28 194.501 33.024C195.909 34.176 196.997 35.4987 197.765 36.992C198.533 38.4427 198.917 39.8507 198.917 41.216C198.917 45.184 197.551 48.2347 194.821 50.368C192.133 52.4587 188.357 53.504 183.493 53.504C182.298 53.504 180.954 53.3547 179.461 53.056V53.248C179.461 54.272 179.866 55.0187 180.677 55.488C181.487 55.9147 182.959 56.2133 185.093 56.384ZM184.581 33.792C183.215 33.792 182.234 34.496 181.637 35.904C181.082 37.312 180.805 39.36 180.805 42.048C180.805 46.8693 182.063 49.28 184.581 49.28C185.946 49.28 186.927 48.5547 187.525 47.104C188.122 45.6533 188.421 43.4347 188.421 40.448C188.421 38.1013 188.101 36.416 187.461 35.392C186.821 34.3253 185.861 33.792 184.581 33.792ZM186.181 73.024C188.143 73.024 189.594 72.5547 190.533 71.616C191.471 70.6773 191.941 69.504 191.941 68.096C191.941 66.816 191.151 65.856 189.573 65.216C188.037 64.6187 185.605 64.0427 182.277 63.488L179.397 62.912C178.842 63.8507 178.565 65.088 178.565 66.624C178.565 68.5867 179.162 70.144 180.357 71.296C181.551 72.448 183.493 73.024 186.181 73.024ZM222.168 57.472C224.856 57.472 227.352 56.6187 229.656 54.912C229.997 55.2533 230.296 55.7653 230.552 56.448C230.808 57.1307 230.936 57.728 230.936 58.24C230.936 59.008 230.424 59.904 229.4 60.928C228.376 61.9093 226.946 62.7627 225.112 63.488C223.32 64.2133 221.293 64.576 219.032 64.576C215.874 64.576 213.101 63.8933 210.712 62.528C208.365 61.1627 206.552 59.1787 205.272 56.576C203.992 53.9733 203.352 50.9013 203.352 47.36C203.352 43.7333 204.034 40.5547 205.4 37.824C206.808 35.0933 208.728 33.0027 211.16 31.552C213.592 30.0587 216.344 29.312 219.416 29.312C223.298 29.312 226.392 30.4427 228.696 32.704C231 34.9653 232.152 38.1013 232.152 42.112C232.152 43.9893 231.853 45.4827 231.256 46.592C230.658 47.6587 229.592 48.192 228.056 48.192H214.232C214.488 54.3787 217.133 57.472 222.168 57.472ZM219.032 33.728C217.709 33.728 216.6 34.4747 215.704 35.968C214.808 37.4187 214.317 39.872 214.232 43.328H220.696C221.378 43.328 221.826 43.0933 222.04 42.624C222.253 42.1547 222.36 41.4293 222.36 40.448C222.36 37.9307 222.061 36.1813 221.464 35.2C220.866 34.2187 220.056 33.728 219.032 33.728Z" fill="#3F6FB9"/>
<path d="M0.625 86.4531V86H6.23047V86.4531H3.67188V94H3.18359V86.4531H0.625ZM12.9598 94V86H13.448V89.7695H18.2684V86H18.7566V94H18.2684V90.2227H13.448V94H12.9598ZM26.0201 94V86H30.4732V86.4531H26.5084V89.7695H30.235V90.2227H26.5084V93.5469H30.567V94H26.0201ZM45.4914 86H46.0227L49.1047 93.2969H49.1594L52.2414 86H52.7727V94H52.3039V87.1602H52.257L49.3625 94H48.9016L46.007 87.1602H45.9602V94H45.4914V86ZM66.3975 90C66.3975 90.8255 66.2542 91.5469 65.9678 92.1641C65.6813 92.7786 65.2829 93.2565 64.7725 93.5977C64.2646 93.9388 63.6787 94.1094 63.0146 94.1094C62.348 94.1094 61.7594 93.9388 61.249 93.5977C60.7412 93.2539 60.3441 92.7747 60.0576 92.1602C59.7712 91.543 59.6279 90.8229 59.6279 90C59.6279 89.1745 59.7712 88.4544 60.0576 87.8398C60.3467 87.2253 60.7451 86.7474 61.2529 86.4062C61.7607 86.0625 62.348 85.8906 63.0146 85.8906C63.6787 85.8906 64.2646 86.0612 64.7725 86.4023C65.2829 86.7435 65.6813 87.2227 65.9678 87.8398C66.2542 88.4544 66.3975 89.1745 66.3975 90ZM65.9209 90C65.9209 89.2578 65.7959 88.6146 65.5459 88.0703C65.2985 87.526 64.9561 87.1055 64.5186 86.8086C64.0811 86.5091 63.5798 86.3594 63.0146 86.3594C62.4495 86.3594 61.9482 86.5078 61.5107 86.8047C61.0732 87.099 60.7295 87.5195 60.4795 88.0664C60.2321 88.6107 60.1084 89.2552 60.1084 90C60.1084 90.737 60.2308 91.3789 60.4756 91.9258C60.723 92.4701 61.0654 92.8919 61.5029 93.1914C61.9404 93.4909 62.4443 93.6406 63.0146 93.6406C63.5798 93.6406 64.0811 93.4922 64.5186 93.1953C64.9561 92.8958 65.2985 92.474 65.5459 91.9297C65.7959 91.3854 65.9209 90.7422 65.9209 90ZM75.4744 94H73.2557V86H75.6463C76.3963 86 77.0382 86.1589 77.5721 86.4766C78.1059 86.7943 78.5148 87.25 78.7986 87.8437C79.0851 88.4349 79.227 89.1445 79.2244 89.9727C79.2218 90.819 79.0734 91.543 78.7791 92.1445C78.4848 92.7435 78.059 93.2031 77.5018 93.5234C76.9445 93.8411 76.2687 94 75.4744 94ZM73.7439 93.5469H75.4549C76.1684 93.5469 76.77 93.4049 77.2596 93.1211C77.7492 92.8346 78.1189 92.4245 78.3689 91.8906C78.6215 91.3568 78.7465 90.7174 78.7439 89.9727C78.7439 89.2383 78.6228 88.6094 78.3807 88.0859C78.1385 87.5599 77.7856 87.1562 77.3221 86.875C76.8611 86.5937 76.296 86.4531 75.6268 86.4531H73.7439V93.5469ZM86.0797 94V86H90.5328V86.4531H86.568V89.7695H90.2945V90.2227H86.568V93.5469H90.6266V94H86.0797ZM97.5072 94V86H99.9721C100.477 86 100.912 86.099 101.277 86.2969C101.641 86.4948 101.921 86.7695 102.117 87.1211C102.312 87.4701 102.41 87.8763 102.41 88.3398C102.41 88.7982 102.312 89.2018 102.117 89.5508C101.921 89.8971 101.641 90.168 101.277 90.3633C100.915 90.5586 100.481 90.6562 99.976 90.6562H97.7689V90.1992H99.9643C100.376 90.1992 100.727 90.1224 101.019 89.9687C101.311 89.8151 101.535 89.6003 101.691 89.3242C101.847 89.0456 101.925 88.7174 101.925 88.3398C101.925 87.9596 101.847 87.6289 101.691 87.3477C101.535 87.0638 101.309 86.8437 101.015 86.6875C100.723 86.5312 100.372 86.4531 99.9604 86.4531H97.9955V94H97.5072ZM100.792 90.375L102.761 94H102.199L100.242 90.375H100.792ZM115.424 86V94H114.947L109.846 86.8867H109.799V94H109.311V86H109.791L114.893 93.1211H114.94V86H115.424ZM130.726 94V86H131.215V89.7695H136.035V86H136.523V94H136.035V90.2227H131.215V94H130.726ZM150.15 90C150.15 90.8255 150.007 91.5469 149.72 92.1641C149.434 92.7786 149.035 93.2565 148.525 93.5977C148.017 93.9388 147.431 94.1094 146.767 94.1094C146.101 94.1094 145.512 93.9388 145.002 93.5977C144.494 93.2539 144.097 92.7747 143.81 92.1602C143.524 91.543 143.38 90.8229 143.38 90C143.38 89.1745 143.524 88.4544 143.81 87.8398C144.099 87.2253 144.498 86.7474 145.005 86.4062C145.513 86.0625 146.101 85.8906 146.767 85.8906C147.431 85.8906 148.017 86.0612 148.525 86.4023C149.035 86.7435 149.434 87.2227 149.72 87.8398C150.007 88.4544 150.15 89.1745 150.15 90ZM149.673 90C149.673 89.2578 149.548 88.6146 149.298 88.0703C149.051 87.526 148.709 87.1055 148.271 86.8086C147.834 86.5091 147.332 86.3594 146.767 86.3594C146.202 86.3594 145.701 86.5078 145.263 86.8047C144.826 87.099 144.482 87.5195 144.232 88.0664C143.985 88.6107 143.861 89.2552 143.861 90C143.861 90.737 143.983 91.3789 144.228 91.9258C144.476 92.4701 144.818 92.8919 145.255 93.1914C145.693 93.4909 146.197 93.6406 146.767 93.6406C147.332 93.6406 147.834 93.4922 148.271 93.1953C148.709 92.8958 149.051 92.474 149.298 91.9297C149.548 91.3854 149.673 90.7422 149.673 90ZM161.321 88C161.279 87.5026 161.076 87.1003 160.711 86.793C160.349 86.4857 159.881 86.332 159.305 86.332C158.917 86.332 158.572 86.4036 158.27 86.5469C157.968 86.6901 157.731 86.8854 157.559 87.1328C157.387 87.3802 157.301 87.6641 157.301 87.9844C157.301 88.1901 157.34 88.3763 157.418 88.543C157.499 88.707 157.612 88.8542 157.758 88.9844C157.904 89.112 158.077 89.224 158.278 89.3203C158.478 89.4167 158.7 89.5013 158.942 89.5742L159.817 89.832C160.116 89.9232 160.392 90.0286 160.645 90.1484C160.9 90.2682 161.121 90.4115 161.309 90.5781C161.499 90.7422 161.646 90.9349 161.75 91.1562C161.857 91.3776 161.911 91.6328 161.911 91.9219C161.911 92.3437 161.801 92.7214 161.582 93.0547C161.366 93.388 161.058 93.651 160.657 93.8437C160.258 94.0339 159.788 94.1289 159.246 94.1289C158.731 94.1289 158.282 94.0417 157.899 93.8672C157.519 93.6927 157.218 93.4505 156.996 93.1406C156.775 92.8281 156.65 92.4687 156.621 92.0625H157.121C157.148 92.3932 157.253 92.6797 157.438 92.9219C157.625 93.1615 157.874 93.3464 158.184 93.4766C158.494 93.6068 158.848 93.6719 159.246 93.6719C159.676 93.6719 160.055 93.599 160.383 93.4531C160.711 93.3047 160.968 93.099 161.153 92.8359C161.338 92.5729 161.43 92.2669 161.43 91.918C161.43 91.6367 161.364 91.3958 161.231 91.1953C161.098 90.9948 160.901 90.8216 160.641 90.6758C160.383 90.5299 160.063 90.3997 159.68 90.2852L158.746 90.0039C158.121 89.8138 157.644 89.5547 157.313 89.2266C156.985 88.8984 156.821 88.4896 156.821 88C156.821 87.5885 156.93 87.224 157.149 86.9062C157.368 86.5859 157.664 86.3346 158.039 86.1523C158.417 85.9701 158.843 85.8789 159.317 85.8789C159.793 85.8789 160.214 85.9714 160.579 86.1562C160.943 86.3385 161.232 86.5898 161.446 86.9102C161.659 87.2279 161.778 87.5911 161.801 88H161.321ZM168.79 94V86H171.255C171.763 86 172.198 86.1042 172.56 86.3125C172.924 86.5208 173.204 86.806 173.4 87.168C173.595 87.5299 173.693 87.9427 173.693 88.4062C173.693 88.8646 173.595 89.2747 173.4 89.6367C173.204 89.9987 172.924 90.2852 172.56 90.4961C172.198 90.7044 171.764 90.8086 171.259 90.8086H169.134V90.3555H171.247C171.659 90.3555 172.01 90.2721 172.302 90.1055C172.594 89.9362 172.818 89.7057 172.974 89.4141C173.13 89.1198 173.208 88.7839 173.208 88.4062C173.208 88.026 173.13 87.6888 172.974 87.3945C172.818 87.1003 172.592 86.8698 172.298 86.7031C172.006 86.5365 171.655 86.4531 171.243 86.4531H169.279V94H168.79ZM181.007 86V94H180.519V86H181.007ZM187.741 86.4531V86H193.346V86.4531H190.788V94H190.3V86.4531H187.741ZM198.833 94H198.317L201.204 86H201.766L204.653 94H204.137L201.504 86.6289H201.465L198.833 94ZM199.563 90.9883H203.407V91.4414H199.563V90.9883ZM211.095 94V86H211.583V93.5469H215.49V94H211.095ZM222.721 86V94H222.233V86H222.721ZM229.455 86.4531V86H235.061V86.4531H232.502V94H232.014V86.4531H229.455ZM240.977 86H241.555L244.075 89.8594H244.13L246.649 86H247.227L244.348 90.3711V94H243.856V90.3711L240.977 86Z" fill="#1A1A1A" fill-opacity="0.8"/>
<path d="M234.477 24.598V23.2727H241.44V24.598H238.743V32H237.175V24.598H234.477ZM243.983 23.2727H245.917L248.508 29.5966H248.611L251.201 23.2727H253.136V32H251.619V26.0043H251.538L249.126 31.9744H247.993L245.581 25.9915H245.5V32H243.983V23.2727Z" fill="#1A1A1A" fill-opacity="0.8"/>
</svg>
